<svg width="32" height="32" viewBox="0 0 32 32" fill="none" xmlns="http://www.w3.org/2000/svg">
<path fill-rule="evenodd" clip-rule="evenodd" d="M4.90785 18.0526C4.96048 18.0526 5.0131 18.0592 5.06574 18.0592C5.74337 15.3092 8.21707 13.2697 11.1776 13.2697C13.6579 13.2697 15.796 14.7039 16.8223 16.7894C17.0526 16.7565 17.2829 16.7302 17.5263 16.7302C20.046 16.7302 22.092 18.7763 22.092 21.296C22.092 23.8223 20.046 25.8684 17.5263 25.8684H4.90785C2.74996 25.8684 1 24.1184 1 21.9605C1 19.8026 2.74996 18.0526 4.90785 18.0526Z" stroke="#171515" stroke-width="2" stroke-linecap="round" stroke-linejoin="round"/>
<path d="M17.5262 25.8684C20.0459 25.8684 22.0919 23.8223 22.0919 21.296C22.0919 18.7763 20.0459 16.7302 17.5262 16.7302C16.1512 16.7302 14.9209 17.3355 14.0788 18.296" stroke="#171515" stroke-width="2" stroke-linecap="round" stroke-linejoin="round"/>
<path d="M24.388 19.3881C25.3814 18.3947 25.9999 17.0197 25.9999 15.4934C25.9999 12.4605 23.5459 9.99998 20.5064 9.99998C18.8485 9.99998 17.3617 10.7368 16.3552 11.9013" stroke="#171515" stroke-width="2" stroke-linecap="round" stroke-linejoin="round"/>
<path d="M20.5065 5V7.47369" stroke="#171515" stroke-width="2" stroke-linecap="round" stroke-linejoin="round"/>
<path d="M31 15.4934H28.5329" stroke="#171515" stroke-width="2" stroke-linecap="round" stroke-linejoin="round"/>
<path d="M27.9275 8.0789L26.184 9.82233" stroke="#171515" stroke-width="2" stroke-linecap="round" stroke-linejoin="round"/>
<path d="M27.9275 22.9144L26.184 21.171" stroke="#171515" stroke-width="2" stroke-linecap="round" stroke-linejoin="round"/>
<path d="M14.8355 9.82233L13.0856 8.0789" stroke="#171515" stroke-width="2" stroke-linecap="round" stroke-linejoin="round"/>
</svg>
