<svg width="12" height="27" viewBox="0 0 12 27" fill="none" xmlns="http://www.w3.org/2000/svg">
<path d="M6.11102 0.900391C7.79452 0.900494 9.16473 2.27058 9.16473 3.9541V17.0947C10.4905 18.0675 11.274 19.6011 11.2741 21.2539C11.2741 22.6287 10.7237 23.948 9.7536 24.9141L9.55341 25.1025C8.60398 25.9524 7.36982 26.417 6.09833 26.417C6.00299 26.417 5.90719 26.4144 5.81122 26.4092L5.52216 26.3848C3.23523 26.1306 1.37261 24.338 1.01239 22.0811L0.982117 21.8613C0.768217 19.9938 1.55914 18.1937 3.05731 17.0947V3.9541C3.05731 2.27051 4.42744 0.900391 6.11102 0.900391ZM6.11102 1.94434C5.18361 1.94434 4.4023 2.57603 4.17157 3.43164H4.42255C4.71112 3.43164 4.94501 3.66553 4.94501 3.9541C4.94482 4.24251 4.711 4.47559 4.42255 4.47559H4.10126V5.54199H4.42255C4.71109 5.54199 4.94496 5.77494 4.94501 6.06348C4.94501 6.35205 4.71112 6.58594 4.42255 6.58594H4.10126V7.65137H4.42255C4.71112 7.65137 4.94501 7.88525 4.94501 8.17383C4.94477 8.4622 4.71097 8.69531 4.42255 8.69531H4.10126V9.76172H4.42255C4.71112 9.76172 4.94501 9.99463 4.94501 10.2832C4.94501 10.5718 4.71112 10.8047 4.42255 10.8047H4.10126V11.8711H4.42255C4.71097 11.8711 4.94477 12.1042 4.94501 12.3926C4.94501 12.6812 4.71112 12.915 4.42255 12.915H4.10126V13.9805H4.42255C4.71112 13.9805 4.94501 14.2144 4.94501 14.5029C4.94496 14.7915 4.71109 15.0244 4.42255 15.0244H4.10126V16.0908H4.42255C4.711 16.0908 4.94481 16.3239 4.94501 16.6123C4.94501 16.9009 4.71112 17.1348 4.42255 17.1348H4.10126V17.6484L4.05536 17.6787L3.86493 17.8027C2.54689 18.6634 1.83954 20.1728 2.01923 21.7422L2.04364 21.917C2.33083 23.7152 3.81602 25.1446 5.63739 25.3467L5.86005 25.3662C6.96943 25.4316 8.02828 25.0662 8.85712 24.3242L9.0163 24.1738C9.79019 23.403 10.2302 22.351 10.2302 21.2539C10.23 19.946 9.61572 18.7304 8.57196 17.9531L8.35712 17.8037L8.16571 17.6787L8.12079 17.6494V15.8691H7.79852C7.51002 15.8691 7.27704 15.6352 7.27704 15.3467C7.27709 15.0582 7.51006 14.8253 7.79852 14.8252H8.12079V13.7588H7.79852C7.51014 13.7587 7.27723 13.5257 7.27704 13.2373C7.27704 12.9488 7.51002 12.7149 7.79852 12.7148H8.12079V11.6494H7.79852C7.51002 11.6493 7.27704 11.4155 7.27704 11.127C7.27714 10.8385 7.51008 10.6056 7.79852 10.6055H8.12079V9.53906H7.79852C7.51011 9.53897 7.27718 9.30598 7.27704 9.01758C7.27704 8.72906 7.51002 8.49521 7.79852 8.49512H8.12079V7.42969H7.79852C7.51002 7.4296 7.27704 7.19575 7.27704 6.90723C7.27718 6.61883 7.51011 6.38583 7.79852 6.38574H8.12079V5.31934H7.79852C7.51008 5.31925 7.27713 5.08629 7.27704 4.79785C7.27704 4.50933 7.51002 4.27548 7.79852 4.27539H8.12079V3.9541C8.12079 2.84604 7.21906 1.94444 6.11102 1.94434Z" fill="black" stroke="black" stroke-width="0.2"/>
<path d="M6.11008 9.90039C6.39862 9.90039 6.63249 10.1333 6.63254 10.4219V19.1084C7.60065 19.343 8.31986 20.2135 8.32004 21.2539C8.32004 22.4742 7.33035 23.4639 6.11008 23.4639C4.89001 23.4636 3.90109 22.474 3.90109 21.2539C3.90127 20.2134 4.62044 19.3429 5.58859 19.1084V10.4219C5.58864 10.1335 5.82174 9.90063 6.11008 9.90039Z" fill="black" stroke="black" stroke-width="0.2"/>
</svg>
