<svg width="27" height="25" viewBox="0 0 27 25" fill="none" xmlns="http://www.w3.org/2000/svg">
<path fill-rule="evenodd" clip-rule="evenodd" d="M6.55208 4.64583C6.55208 2.47697 8.31029 0.71875 10.4792 0.71875C12.648 0.71875 14.4062 2.47696 14.4062 4.64583C14.4062 6.81471 12.648 8.57292 10.4792 8.57292H2.625C2.12449 8.57292 1.71875 8.16717 1.71875 7.66667C1.71875 7.16616 2.12449 6.76042 2.625 6.76042H10.4792C11.647 6.76042 12.5937 5.81369 12.5937 4.64583C12.5937 3.47798 11.647 2.53125 10.4792 2.53125C9.31131 2.53125 8.36458 3.47798 8.36458 4.64583V5.07738C8.36458 5.57789 7.95883 5.98363 7.45833 5.98363C6.95783 5.98363 6.55208 5.57789 6.55208 5.07738V4.64583ZM16.2187 7.0625C16.2187 4.22629 18.518 1.92708 21.3542 1.92708C24.1904 1.92708 26.4896 4.22629 26.4896 7.0625C26.4896 9.89871 24.1904 12.1979 21.3542 12.1979H1.41666C0.91616 12.1979 0.510414 11.7922 0.510414 11.2917C0.510414 10.7912 0.91616 10.3854 1.41666 10.3854H21.3542C23.1894 10.3854 24.6771 8.89769 24.6771 7.0625C24.6771 5.22731 23.1894 3.73958 21.3542 3.73958C19.5189 3.73958 18.0312 5.22731 18.0312 7.0625V7.66667C18.0312 8.16717 17.6255 8.57292 17.125 8.57292C16.6245 8.57292 16.2187 8.16717 16.2187 7.66667V7.0625ZM2.92708 14.9167C2.92708 14.4162 3.33283 14.0104 3.83333 14.0104H21.3542C24.1904 14.0104 26.4896 16.3096 26.4896 19.1458C26.4896 21.982 24.1904 24.2813 21.3542 24.2813C18.518 24.2813 16.2187 21.982 16.2187 19.1458V18.5417C16.2187 18.0412 16.6245 17.6354 17.125 17.6354C17.6255 17.6354 18.0312 18.0412 18.0312 18.5417V19.1458C18.0312 20.9811 19.5189 22.4688 21.3542 22.4688C23.1894 22.4688 24.6771 20.9811 24.6771 19.1458C24.6771 17.3106 23.1894 15.8229 21.3542 15.8229H3.83333C3.33283 15.8229 2.92708 15.4172 2.92708 14.9167Z" fill="black"/>
</svg>
